# 3ds Max Wavefront OBJ Exporter v0.99 - (c)2007 guruware
# File Created: 18.03.2023 19:36:37

mtllib Parez_Dub_1_Mk2.mtl

#
# object Parez_Dub_1_Mk2
#

v  4436.5293 86.8607 -50571.4570
v  4347.3975 83.7293 -50608.3828
v  4316.3374 82.1220 -50693.6055
v  4568.1616 90.1304 -50706.8398
v  4344.7866 82.4989 -50769.1016
v  4436.5591 85.0192 -50829.7422
v  4525.8921 88.3198 -50769.9922
v  4523.0396 89.4197 -50602.9375
v  4439.2886 120.4258 -50595.2578
v  4368.5605 120.8848 -50624.2109
v  4465.6719 279.9650 -50776.7031
v  4502.0542 272.7259 -50708.9102
v  4539.2495 120.8123 -50695.4570
v  4509.3647 128.7173 -50766.0391
v  4350.6343 211.3822 -50772.4922
v  4404.0078 251.2287 -50802.8242
v  4438.3359 130.0013 -50795.0586
v  4368.2729 123.3641 -50765.4062
v  4322.8779 209.3001 -50705.2461
v  4339.4590 119.3481 -50694.6211
v  4403.0503 265.4086 -50614.2109
v  4346.8315 226.8240 -50639.5898
v  4465.9292 288.2292 -50643.0742
v  4510.1348 117.6218 -50624.7344
v  4457.7051 276.7769 -50767.7500
v  4490.0679 269.0148 -50708.7734
v  4404.0190 252.0291 -50790.4570
v  4358.1167 216.3853 -50764.0664
v  4333.3369 215.8079 -50705.7227
v  4354.5605 230.3727 -50648.5977
v  4402.9233 264.8375 -50626.6055
v  4457.4761 284.8323 -50651.7148
v  4507.8662 71.8830 -50821.5352
v  4478.7979 64.9580 -50841.7930
v  4483.0195 109.0813 -50820.3047
v  4503.0293 117.2595 -50809.3438
v  4294.7349 78.3114 -50658.6250
v  4297.1924 74.5179 -50630.2188
v  4318.7407 105.5339 -50641.8594
v  4316.7998 104.5571 -50665.4844
v  4560.7764 74.6944 -50631.1133
v  4574.8379 83.3189 -50665.4648
v  4550.4507 101.8480 -50662.6484
v  4545.1772 93.4594 -50645.1250
v  4485.2773 137.2147 -50788.8320
v  4461.5977 136.9711 -50798.5078
v  4342.6006 123.6535 -50673.7422
v  4352.2666 124.6221 -50650.2773
v  4519.8086 126.6703 -50650.9336
v  4529.4893 127.8310 -50674.5117
v  4450.1562 71.9804 -50848.6211
v  4536.6870 69.9473 -50787.9961
v  4463.4849 113.3707 -50817.2461
v  4522.5967 106.7479 -50785.8945
v  4327.8511 74.7751 -50606.6797
v  4296.7690 75.3744 -50677.7539
v  4348.5508 106.4837 -50623.3633
v  4319.5493 106.2015 -50679.6250
v  4588.9741 74.4395 -50696.8945
v  4546.6758 74.5631 -50593.8672
v  4558.9287 95.9400 -50681.5977
v  4535.3804 93.5548 -50621.2578
v  4465.8003 260.4936 -50766.6602
v  4492.9668 262.2269 -50708.3906
v  4411.8667 236.8979 -50789.5156
v  4360.0894 212.2948 -50763.8906
v  4338.4966 205.2462 -50705.2812
v  4356.7939 225.8609 -50648.3594
v  4409.6914 251.3755 -50625.7344
v  4467.9668 262.6183 -50650.2773
# 70 vertices

vn -0.0220 -0.3875 0.9216
vn -0.0388 -0.5022 0.8639
vn -0.6121 -0.5857 -0.5313
vn 0.7227 -0.2607 -0.6401
vn -0.7104 -0.4705 -0.5234
vn -0.6583 -0.3972 -0.6394
vn 0.7872 -0.6101 0.0903
vn 0.0306 -0.3833 0.9231
vn 0.0476 0.3904 0.9194
vn -0.5181 0.3538 0.7787
vn 0.2998 0.7931 -0.5302
vn 0.6599 0.7488 -0.0615
vn 0.8447 0.5351 -0.0156
vn 0.8339 0.4027 -0.3773
vn -0.7621 0.3083 -0.5693
vn -0.3199 0.5388 -0.7793
vn -0.3075 0.2743 -0.9112
vn -0.6755 0.1258 -0.7265
vn -0.9452 0.3207 -0.0621
vn -0.9335 0.2795 -0.2246
vn -0.2730 0.6544 0.7052
vn -0.7643 0.4417 0.4699
vn 0.3303 0.8383 0.4338
vn 0.5577 0.5275 0.6409
vn -0.5686 0.6518 0.5018
vn -0.8936 0.4475 -0.0350
vn -0.4358 0.7343 0.5205
vn 0.0158 0.9112 0.4116
vn 0.1025 0.9863 -0.1292
vn -0.0206 0.8508 -0.5251
vn -0.3888 0.6930 -0.6071
vn -0.5338 0.6253 -0.5693
vn 0.6585 -0.2229 -0.7188
vn 0.1726 -0.7576 -0.6295
vn 0.1335 0.5126 -0.8482
vn 0.5148 0.5933 -0.6189
vn -0.9946 0.1038 0.0036
vn -0.7949 -0.4296 0.4284
vn -0.5936 0.7341 0.3298
vn -0.6953 0.7186 -0.0161
vn -0.3330 0.9422 -0.0360
vn 0.8745 0.0071 0.4850
vn 0.6316 0.7029 0.3270
vn 0.6081 0.6858 0.3999
vn 0.5196 0.6065 -0.6018
vn -0.1560 0.9366 -0.3136
vn -0.8845 0.4335 0.1723
vn 0.0974 0.9952 0.0060
vn 0.8094 0.4279 0.4022
vn -0.3211 0.9099 -0.2627
vn -0.4097 -0.4554 -0.7905
vn 0.6888 -0.7205 0.0803
vn -0.0346 0.7328 -0.6795
vn 0.8788 0.4506 -0.1574
vn -0.1899 -0.6325 0.7510
vn -0.6894 -0.6456 -0.3286
vn -0.4229 0.6245 0.6566
vn -0.7017 0.6704 -0.2411
vn 0.7598 -0.5411 -0.3604
vn 0.3126 -0.4236 0.8502
vn 0.6560 0.7396 0.1502
vn 0.6424 0.7254 0.2472
vn -0.6609 -0.2820 0.6955
vn -0.9198 -0.3921 0.0122
vn -0.0117 0.0559 0.9984
vn 0.6421 0.3394 0.6873
vn 0.8986 0.4387 -0.0061
vn 0.6396 0.2793 -0.7162
vn -0.0271 -0.0781 -0.9966
vn -0.6661 -0.3570 -0.6549
vn -0.1299 0.9915 -0.0007
vn -0.4596 0.8679 0.1885
vn -0.4153 0.9056 -0.0856
vn -0.3285 0.9377 -0.1129
vn -0.4523 0.8898 -0.0596
vn -0.4617 0.8816 -0.0980
vn -0.3463 0.9122 -0.2190
vn -0.2312 0.9671 -0.1060
# 78 vertex normals

vt 0.5000 0.0000 1.0000
vt 0.3750 0.0000 1.0000
vt 0.2500 0.0000 1.0000
vt 0.1161 0.0000 0.4142
vt 0.1250 0.0000 1.0000
vt 0.0000 0.0000 1.0000
vt -0.1250 0.0000 1.0000
vt 0.6250 0.0000 1.0000
vt 0.5000 0.3300 1.0000
vt 0.3750 0.3300 1.0000
vt 0.8750 1.0000 1.0000
vt 0.7500 1.0000 1.0000
vt 0.7500 0.3300 1.0000
vt 0.8750 0.3300 1.0000
vt 0.1250 1.0000 1.0000
vt 0.0000 1.0000 1.0000
vt 0.0000 0.3300 1.0000
vt 0.1250 0.3300 1.0000
vt 0.2500 1.0000 1.0000
vt 0.2500 0.3300 1.0000
vt 0.5000 1.0000 1.0000
vt 0.3750 1.0000 1.0000
vt 0.6250 1.0000 1.0000
vt 0.6250 0.3300 1.0000
vt 0.7803 1.0000 0.4142
vt 0.5214 1.0000 -0.4142
vt 0.2500 1.0000 -1.0000
vt 0.1250 1.0000 -1.0000
vt 0.2197 1.0000 -0.4142
vt 0.8750 0.0000 1.0000
vt 0.7500 0.0000 1.0000
vt -0.0833 0.0000 1.0000
vt -0.0417 0.0000 1.0000
vt -0.0417 0.3300 1.0000
vt -0.0833 0.3300 1.0000
vt 0.2917 0.0000 1.0000
vt 0.3333 0.0000 1.0000
vt 0.3333 0.3300 1.0000
vt 0.2917 0.3300 1.0000
vt 0.6667 0.0000 1.0000
vt 0.7083 0.0000 1.0000
vt 0.7083 0.3300 1.0000
vt 0.6667 0.3300 1.0000
vt -0.1250 1.0000 1.0000
vt -0.1250 0.3300 1.0000
# 45 texture coords

o Parez_Dub_1_Mk2
g Parez_Dub_1_Mk2
usemtl wire_135059008
s 1
f 1/1/1 2/2/2 3/3/3 4/4/4 
f 3/3/3 5/5/5 6/6/6 4/4/4 
f 6/6/6 7/7/7 4/4/4 
f 8/8/8 1/1/1 4/4/4 
s 2
f 1/1/1 9/9/9 10/10/10 2/2/2 
s 1
f 11/11/11 12/12/12 13/13/13 14/14/14 
f 15/15/15 16/16/16 17/17/17 18/18/18 
s 2
f 19/19/19 15/15/15 18/18/18 20/20/20 
s 1
f 21/21/21 22/22/22 10/10/10 9/9/9 
s 4
f 23/23/23 21/21/21 9/9/9 24/24/24 
s 2
f 12/12/12 11/11/11 25/11/25 26/12/26 
s 4
f 11/11/11 16/25/16 27/25/27 25/11/25 
s 8
f 16/25/16 15/26/15 28/26/28 27/25/27 
s 16
f 15/26/15 19/27/19 29/27/29 28/26/28 
f 19/27/19 22/28/22 30/28/30 29/27/29 
f 22/28/22 21/29/21 31/29/31 30/28/30 
f 21/29/21 23/23/23 32/23/32 31/29/31 
s 8
f 23/23/23 12/12/12 26/12/26 32/23/32 
s 2
f 7/30/7 14/14/14 13/13/13 4/31/4 
s 1
f 33/32/33 34/33/34 35/34/35 36/35/36 
s 4
f 5/5/5 18/18/18 17/17/17 6/6/6 
s 8
f 3/3/3 20/20/20 18/18/18 5/5/5 
s 1
f 37/36/37 38/37/38 39/38/39 40/39/40 
s 8
f 8/8/8 24/24/24 9/9/9 1/1/1 
s 1
f 41/40/41 42/41/42 43/42/43 44/43/44 
s 16
f 16/16/16 11/44/11 14/45/14 45/35/45 
f 16/16/16 45/35/45 46/34/46 17/17/17 
s 4
f 22/22/22 19/19/19 20/20/20 47/39/47 
f 22/22/22 47/39/47 48/38/48 10/10/10 
s 32
f 12/12/12 23/23/23 24/24/24 49/43/49 
f 12/12/12 49/43/49 50/42/50 13/13/13 
s 8
f 7/7/7 6/6/6 51/6/51 34/33/34 
f 7/7/7 34/33/34 33/32/33 52/7/52 
s 2
f 6/6/6 17/17/17 53/17/53 51/6/51 
s 4
f 45/35/45 36/35/36 35/34/35 46/34/46 
f 14/45/14 7/7/7 52/7/52 54/45/54 
f 3/3/3 2/2/2 55/2/55 38/37/38 
f 3/3/3 38/37/38 37/36/37 56/3/56 
s 2
f 2/2/2 10/10/10 57/10/57 55/2/55 
s 8
f 48/38/48 47/39/47 40/39/40 39/38/39 
s 16
f 20/20/20 3/3/3 56/3/56 58/20/58 
s 4
f 8/8/8 4/31/4 59/31/59 42/41/42 
f 8/8/8 42/41/42 41/40/41 60/8/60 
s 2
f 4/31/4 13/13/13 61/13/61 59/31/59 
f 50/42/50 49/43/49 44/43/44 43/42/43 
s 16
f 24/24/24 8/8/8 60/8/60 62/24/62 
f 34/33/34 51/6/51 53/17/53 35/34/35 
s 2
f 54/45/54 52/7/52 33/32/33 36/35/36 
f 38/37/38 55/2/55 57/10/57 39/38/39 
f 58/20/58 56/3/56 37/36/37 40/39/40 
s 1
f 42/41/42 59/31/59 61/13/61 43/42/43 
f 62/24/62 60/8/60 41/40/41 44/43/44 
s 8
f 14/45/14 54/45/54 36/35/36 45/35/45 
s 2
f 53/17/53 17/17/17 46/34/46 35/34/35 
s 32
f 47/39/47 20/20/20 58/20/58 40/39/40 
s 16
f 39/38/39 57/10/57 10/10/10 48/38/48 
s 2
f 49/43/49 24/24/24 62/24/62 44/43/44 
s 4
f 43/42/43 61/13/61 13/13/13 50/42/50 
s 16
f 26/12/26 25/11/25 63/11/63 64/12/64 
s 32
f 25/11/25 27/25/27 65/25/65 63/11/63 
s 2
f 27/25/27 28/26/28 66/26/66 65/25/65 
s 4
f 28/26/28 29/27/29 67/27/67 66/26/66 
s 2
f 29/27/29 30/28/30 68/28/68 67/27/67 
s 4
f 30/28/30 31/29/31 69/29/69 68/28/68 
s 2
f 31/29/31 32/23/32 70/23/70 69/29/69 
s 4
f 32/23/32 26/12/26 64/12/64 70/23/70 
s 1
f 64/12/71 63/11/72 65/25/73 69/29/74 
f 65/25/73 66/26/75 67/27/76 69/29/74 
f 67/27/76 68/28/77 69/29/74 
f 70/23/78 64/12/71 69/29/74 
# 66 polygons - 4 triangles

